<svg version="1.1" id="About" xmlns="http://www.w3.org/2000/svg" xmlns:xlink="http://www.w3.org/1999/xlink" x="0px" y="0px"
	 viewBox="0 0 260 260" enable-background="new 0 0 260 260" xml:space="preserve">
<g>
	<path fill="#282828" d="M-54.6,111c-0.6-3.9-3.3-7.2-7-8.5l-16.8-6c-1.9-0.7-3.4-2.1-4.1-4c-0.5-1.3-1-2.6-1.6-3.8
		c-0.8-1.8-0.7-3.9,0.1-5.7l7.6-16c1.7-3.6,1.3-7.8-1-10.9c-7.6-10.3-16.6-19.3-26.8-26.8c-3.2-2.3-7.4-2.7-10.9-1l-15.9,7.6
		c-1.8,0.9-3.9,0.9-5.7,0.1c-1.3-0.6-2.6-1.1-3.9-1.6c-1.9-0.7-3.3-2.3-4-4.2l-5.9-16.6c-1.3-3.7-4.6-6.4-8.5-7
		c-13.8-2.1-24.1-2.1-38,0c-3.9,0.6-7.1,3.3-8.5,7l-5.9,16.6c-0.7,1.9-2.1,3.4-4,4.2c-1.3,0.5-2.6,1-3.9,1.6
		c-1.8,0.8-3.9,0.7-5.7-0.1l-15.9-7.6c-3.6-1.7-7.8-1.3-10.9,1c-10.2,7.5-19.3,16.5-26.8,26.8c-2.3,3.2-2.7,7.4-1,10.9l7.6,15.9
		c0.9,1.8,0.9,3.9,0.1,5.7c-0.6,1.3-1.1,2.6-1.6,3.9c-0.7,1.9-2.3,3.3-4.2,4l-16.6,5.9c-3.7,1.3-6.4,4.6-7,8.5
		c-1.1,7.1-1.6,13.1-1.6,19c0,5.9,0.5,11.9,1.6,19c0.6,3.9,3.3,7.2,7,8.5l16.6,5.9c1.9,0.7,3.4,2.1,4.2,4c0.5,1.3,1,2.6,1.6,3.9
		c0.8,1.8,0.7,3.9-0.1,5.7l-7.6,15.9c-1.7,3.6-1.3,7.8,1,10.9c7.5,10.3,16.6,19.3,26.8,26.8c3.2,2.3,7.4,2.7,10.9,1l16-7.6
		c1.8-0.9,3.9-0.9,5.7-0.1c1.3,0.5,2.6,1.1,3.9,1.6c1.9,0.7,3.3,2.3,4,4.2l5.9,16.7c1.3,3.7,4.6,6.4,8.5,7c6.9,1.1,13.1,1.6,19,1.6
		s12.1-0.5,19-1.6c3.9-0.6,7.1-3.3,8.5-7l5.9-16.6c0.7-1.9,2.1-3.4,4-4.2c1.3-0.5,2.6-1,3.9-1.6c1.8-0.8,3.9-0.7,5.7,0.1l15.9,7.6
		c3.6,1.7,7.8,1.3,10.9-1c10.3-7.5,19.3-16.6,26.8-26.8c2.3-3.2,2.7-7.4,1-10.9l-7.6-16c-0.9-1.8-0.9-3.9-0.1-5.8
		c0.5-1.2,1-2.5,1.5-3.8c0.7-1.9,2.3-3.4,4.2-4l16.7-5.9c3.7-1.3,6.4-4.6,7-8.5c1.1-7.1,1.6-13.1,1.6-19
		C-53,124.1-53.5,118.1-54.6,111z M-178,177.1c-27.4,0-49.6-22.3-49.6-49.6s22.3-49.6,49.6-49.6s49.6,22.3,49.6,49.6
		S-150.6,177.1-178,177.1z"/>
</g>
<path fill="#282828" d="M224.6,221.6c-5.1-20.6-26.3-47.9-51.4-47.9H149v-22.8c9.6-7.6,18.5-19.5,25.8-32.7h7.5c5.4,0.7-0.9-2,0-6.1
	l14.8-43.4c0.8-3.4-0.9-3.1-5.2,2.4c0.4-3,0.8-6,0.8-8.6c0-14.8-3-24.8-13-33.6c-0.1-0.1-0.1-0.1-0.2-0.2
	c-7.4-6.6-6.2-15.5-6.2-15.5s-3.8,2.4-8.6,3.6c-10.2-6-22.5-9.5-35.7-9.5c-13.2,0-25.4,3.5-35.6,9.5C78.2,12.6,55.6,5,55.6,5
	l23,21.3l-28,12.9l19.2-1.8L40.8,71.9l21.8-11.2L49.8,92.3l14.7-12.7l11,32.4c0.9,4-5.4,6.7,0,6.1h7.6c7.8,14.1,17.5,26.8,27.8,34.2
	v21.4h-24c-25.2,0-46.4,27.3-51.4,47.9c-1.1,4.6,1.8,9.1,6.4,10l70.1,21.8c11.9,2.1,24.2,2.1,36.1,0l70.1-21.8
	C222.8,230.7,225.7,226.2,224.6,221.6z"/>
</svg>
