<svg version="1.1" id="About" xmlns="http://www.w3.org/2000/svg" xmlns:xlink="http://www.w3.org/1999/xlink" viewBox="-3 0 260 260">
	<path fill="#3E454C" d="M224.6,221.6c-5.1-20.6-26.3-47.9-51.4-47.9H149v-22.8c9.6-7.6,18.5-19.5,25.8-32.7h7.5c5.4,0.7-0.9-2,0-6.1
		l14.8-43.4c0.8-3.4-0.9-3.1-5.2,2.4c0.4-3,0.8-6,0.8-8.6c0-14.8-3-24.8-13-33.6c-0.1-0.1-0.1-0.1-0.2-0.2
		c-7.4-6.6-6.2-15.5-6.2-15.5s-3.8,2.4-8.6,3.6c-10.2-6-22.5-9.5-35.7-9.5c-13.2,0-25.4,3.5-35.6,9.5C78.2,12.6,55.6,5,55.6,5
		l23,21.3l-28,12.9l19.2-1.8L40.8,71.9l21.8-11.2L49.8,92.3l14.7-12.7l11,32.4c0.9,4-5.4,6.7,0,6.1h7.6c7.8,14.1,17.5,26.8,27.8,34.2
		v21.4h-24c-25.2,0-46.4,27.3-51.4,47.9c-1.1,4.6,1.8,9.1,6.4,10l70.1,21.8c11.9,2.1,24.2,2.1,36.1,0l70.1-21.8
		C222.8,230.7,225.7,226.2,224.6,221.6z"/>
</svg>
