<?xml version="1.0" encoding="utf-8"?>
<!-- Generator: Adobe Illustrator 19.1.0, SVG Export Plug-In . SVG Version: 6.00 Build 0)  -->
<svg version="1.1" xmlns="http://www.w3.org/2000/svg" xmlns:xlink="http://www.w3.org/1999/xlink" x="0px" y="0px"
	 viewBox="0 0 1000 1000" enable-background="new 0 0 1000 1000" xml:space="preserve">
<g id="Layer_1">
	<g>
		<path fill="none" stroke="#000000" stroke-miterlimit="10" d="M299.992-426L299.992-426c-13.807,0-25-11.193-25-25v-450
			c0-13.807,11.193-25,25-25h0c13.807,0,25,11.193,25,25v450C324.992-437.193,313.799-426,299.992-426z"/>
		<path fill="none" stroke="#000000" stroke-miterlimit="10" d="M512.496-819.065L512.496-819.065
			c11.957,6.904,16.054,22.193,9.151,34.151l-200,346.41c-6.904,11.957-22.193,16.054-34.151,9.151h0
			c-11.957-6.904-16.054-22.193-9.151-34.151l200-346.41C485.249-821.872,500.538-825.969,512.496-819.065z"/>
		<path fill="none" stroke="#000000" stroke-miterlimit="10" d="M700.008-426L700.008-426c13.807,0,25-11.193,25-25v-450
			c0-13.807-11.193-25-25-25h0c-13.807,0-25,11.193-25,25v450C675.008-437.193,686.201-426,700.008-426z"/>
		<path fill="none" stroke="#000000" stroke-miterlimit="10" d="M487.504-819.065L487.504-819.065
			c-11.957,6.904-16.054,22.193-9.151,34.151l200,346.41c6.904,11.957,22.193,16.054,34.151,9.151h0
			c11.957-6.904,16.054-22.193,9.151-34.151l-200-346.41C514.751-821.872,499.462-825.969,487.504-819.065z"/>
	</g>
	<g>
		<path fill="none" stroke="#000000" stroke-miterlimit="10" d="M512.357-429.595L512.357-429.595
			c-11.957,6.904-27.247,2.807-34.151-9.151l-100-173.205c-6.904-11.957-2.807-27.247,9.151-34.151h0
			c11.957-6.904,27.247-2.807,34.151,9.151l100,173.205C528.411-451.788,524.314-436.498,512.357-429.595z"/>
		<path fill="none" stroke="#000000" stroke-miterlimit="10" d="M487.643-429.595L487.643-429.595
			c11.957,6.904,27.247,2.807,34.151-9.151l100-173.205c6.904-11.957,2.807-27.247-9.151-34.151h0
			c-11.957-6.904-27.247-2.807-34.151,9.151l-100,173.205C471.589-451.788,475.686-436.498,487.643-429.595z"/>
		<path fill="none" stroke="#000000" stroke-miterlimit="10" d="M412.496-645.86L412.496-645.86
			c11.957,6.904,16.054,22.193,9.151,34.151l-100,173.205c-6.904,11.957-22.193,16.054-34.151,9.151h0
			c-11.957-6.904-16.054-22.193-9.151-34.151l100-173.205C385.249-648.667,400.539-652.763,412.496-645.86z"/>
		<path fill="none" stroke="#000000" stroke-miterlimit="10" d="M587.504-645.86L587.504-645.86
			c-11.957,6.904-16.054,22.193-9.151,34.151l100,173.205c6.904,11.957,22.193,16.054,34.151,9.151h0
			c11.957-6.904,16.054-22.193,9.151-34.151l-100-173.205C614.751-648.667,599.461-652.763,587.504-645.86z"/>
	</g>
	<g>
		<path fill="none" stroke="#000000" stroke-miterlimit="10" d="M512.357-429.595L512.357-429.595
			c-11.957,6.904-27.247,2.807-34.151-9.151l-100-173.205c-6.904-11.957-2.807-27.247,9.151-34.151h0
			c11.957-6.904,27.247-2.807,34.151,9.151l100,173.205C528.411-451.788,524.314-436.498,512.357-429.595z"/>
		<path fill="none" stroke="#000000" stroke-miterlimit="10" d="M487.643-429.595L487.643-429.595
			c11.957,6.904,27.247,2.807,34.151-9.151l100-173.205c6.904-11.957,2.807-27.247-9.151-34.151h0
			c-11.957-6.904-27.247-2.807-34.151,9.151l-100,173.205C471.589-451.788,475.686-436.498,487.643-429.595z"/>
	</g>
</g>
<g id="Layer_2">
	<g>
		<path d="M1541.659-392.998L1541.659-392.998c-5.523,0-10-4.477-10-10v-345.657c0-5.523,4.477-10,10-10l0,0c5.523,0,10,4.477,10,10
			v345.657C1551.659-397.475,1547.182-392.998,1541.659-392.998z"/>
		<path d="M1746.998-758.655L1746.998-758.655c4.783,2.761,6.422,8.877,3.66,13.66L1550.321-398
			c-2.761,4.783-8.877,6.422-13.66,3.66v0c-4.783-2.761-6.422-8.877-3.66-13.66l200.338-346.995
			C1736.099-759.778,1742.215-761.416,1746.998-758.655z"/>
		<path d="M1746.821-394.34L1746.821-394.34c-4.783,2.761-10.899,1.123-13.66-3.66l-69.762-120.832
			c-2.761-4.783-1.123-10.899,3.66-13.66l0,0c4.783-2.761,10.899-1.123,13.66,3.66L1750.482-408
			C1753.243-403.217,1751.604-397.101,1746.821-394.34z"/>
		<path d="M1942.341-392.998L1942.341-392.998c5.523,0,10-4.477,10-10v-345.657c0-5.523-4.477-10-10-10l0,0c-5.523,0-10,4.477-10,10
			v345.657C1932.341-397.475,1936.818-392.998,1942.341-392.998z"/>
		<path d="M1737.002-758.655L1737.002-758.655c-4.783,2.761-6.422,8.877-3.66,13.66L1933.679-398
			c2.761,4.783,8.877,6.422,13.66,3.66v0c4.783-2.761,6.422-8.877,3.66-13.66l-200.338-346.995
			C1747.901-759.778,1741.785-761.416,1737.002-758.655z"/>
		<path d="M1737.179-394.34L1737.179-394.34c4.783,2.761,10.899,1.123,13.66-3.66l69.762-120.832
			c2.761-4.783,1.123-10.899-3.66-13.66l0,0c-4.783-2.761-10.899-1.123-13.66,3.66L1733.518-408
			C1730.757-403.217,1732.396-397.101,1737.179-394.34z"/>
	</g>
	<text transform="matrix(1 0 0 1 415.037 -1009.351)" font-family="'MyriadPro-Regular'" font-size="58.5px">Initial</text>
</g>
<g id="Layer_3">
	<g>
		<path d="M2744.659-392.998L2744.659-392.998c-5.523,0-10-4.477-10-10v-563.046c0-5.523,4.477-10,10-10l0,0c5.523,0,10,4.477,10,10
			v563.046C2754.659-397.475,2750.182-392.998,2744.659-392.998z"/>
		<path d="M2949.998-758.655L2949.998-758.655c4.783,2.761,6.422,8.877,3.66,13.66L2753.321-398
			c-2.761,4.783-8.877,6.422-13.66,3.66l0,0c-4.783-2.761-6.422-8.877-3.66-13.66l200.338-346.995
			C2939.1-759.778,2945.215-761.416,2949.998-758.655z"/>
		<path d="M2949.822-394.34L2949.822-394.34c-4.783,2.761-10.899,1.123-13.66-3.66l-69.762-120.832
			c-2.761-4.783-1.123-10.899,3.66-13.66l0,0c4.783-2.761,10.899-1.123,13.66,3.66L2953.482-408
			C2956.243-403.217,2954.604-397.101,2949.822-394.34z"/>
		<path d="M3145.341-392.998L3145.341-392.998c5.523,0,10-4.477,10-10v-563.046c0-5.523-4.477-10-10-10l0,0c-5.523,0-10,4.477-10,10
			v563.046C3135.341-397.475,3139.818-392.998,3145.341-392.998z"/>
		<path d="M2940.002-758.655L2940.002-758.655c-4.783,2.761-6.422,8.877-3.66,13.66L3136.679-398
			c2.761,4.783,8.877,6.422,13.66,3.66l0,0c4.783-2.761,6.422-8.877,3.66-13.66l-200.338-346.995
			C2950.9-759.778,2944.785-761.416,2940.002-758.655z"/>
		<path d="M2940.178-394.34L2940.178-394.34c4.783,2.761,10.899,1.123,13.66-3.66l69.762-120.832
			c2.761-4.783,1.123-10.899-3.66-13.66l0,0c-4.783-2.761-10.899-1.123-13.66,3.66L2936.518-408
			C2933.757-403.217,2935.396-397.101,2940.178-394.34z"/>
	</g>
</g>
<g id="Layer_4">
	<g>
		<g>
			<path d="M2980.78,682.158L2980.78,682.158c4.783,2.761,10.899,1.123,13.66-3.66l172.828-299.348
				c2.761-4.783,1.123-10.899-3.66-13.66l0,0c-4.783-2.761-10.899-1.123-13.66,3.66l-172.828,299.348
				C2974.358,673.28,2975.997,679.396,2980.78,682.158z"/>
			<path d="M2779.854,317.842c-4.783,2.761-6.422,8.877-3.66,13.66l200.338,346.995c2.761,4.783,8.877,6.422,13.66,3.66l0,0
				c4.783-2.761,6.422-8.877,3.66-13.66l-200.337-346.995C2790.753,316.72,2784.637,315.081,2779.854,317.842"/>
			<path d="M3139.969,682.158L3139.969,682.158c-4.783,2.761-10.899,1.123-13.66-3.66l-69.762-120.832
				c-2.761-4.783-1.123-10.899,3.66-13.66l0,0c4.783-2.761,10.899-1.123,13.66,3.66l69.762,120.832
				C3146.39,673.28,3144.751,679.396,3139.969,682.158z"/>
		</g>
		<g>
			<path d="M2909.22,682.158L2909.22,682.158c-4.783,2.761-10.899,1.123-13.66-3.66L2722.732,379.15
				c-2.761-4.783-1.123-10.899,3.66-13.66l0,0c4.783-2.761,10.899-1.123,13.66,3.66l172.828,299.348
				C2915.642,673.28,2914.003,679.396,2909.22,682.158z"/>
			<path d="M3110.146,317.842L3110.146,317.842c4.783,2.761,6.422,8.877,3.66,13.66l-200.338,346.995
				c-2.761,4.783-8.877,6.422-13.66,3.66l0,0c-4.783-2.761-6.422-8.877-3.66-13.66l200.337-346.995
				C3099.247,316.72,3105.363,315.081,3110.146,317.842z"/>
			<path d="M2750.031,682.158L2750.031,682.158c4.783,2.761,10.899,1.123,13.66-3.66l69.762-120.832
				c2.761-4.783,1.123-10.899-3.66-13.66l0,0c-4.783-2.761-10.899-1.123-13.66,3.66l-69.762,120.832
				C2743.61,673.28,2745.249,679.396,2750.031,682.158z"/>
		</g>
	</g>
</g>
<g id="Layer_5">
	<g>
		<g>
			<path d="M1831.391,682.158L1831.391,682.158c-4.783,2.761-10.899,1.123-13.66-3.66L1644.902,379.15
				c-2.761-4.783-1.123-10.899,3.66-13.66l0,0c4.783-2.761,10.899-1.123,13.66,3.66l172.828,299.348
				C1837.812,673.28,1836.174,679.396,1831.391,682.158z"/>
			<path d="M2032.316,317.842L2032.316,317.842c4.783,2.761,6.422,8.877,3.66,13.66l-200.338,346.995
				c-2.761,4.783-8.877,6.422-13.66,3.66l0,0c-4.783-2.761-6.422-8.877-3.66-13.66l200.338-346.995
				C2021.417,316.72,2027.533,315.081,2032.316,317.842z"/>
			<path d="M2032.139,682.158L2032.139,682.158c-4.783,2.761-10.899,1.123-13.66-3.66l-69.762-120.832
				c-2.761-4.783-1.123-10.899,3.66-13.66l0,0c4.783-2.761,10.899-1.123,13.66,3.66l69.762,120.832
				C2038.561,673.28,2036.922,679.396,2032.139,682.158z"/>
		</g>
		<path d="M1652.609,682.158L1652.609,682.158c4.783,2.761,10.899,1.123,13.66-3.66l172.828-299.348
			c2.761-4.783,1.123-10.899-3.66-13.66l0,0c-4.783-2.761-10.899-1.123-13.66,3.66l-172.828,299.348
			C1646.188,673.28,1647.826,679.396,1652.609,682.158z"/>
		<path d="M1451.684,317.842c-4.783,2.761-6.422,8.877-3.66,13.66l200.338,346.995c2.761,4.783,8.877,6.422,13.66,3.66l0,0
			c4.783-2.761,6.422-8.877,3.66-13.66l-200.338-346.995C1462.583,316.72,1456.467,315.081,1451.684,317.842"/>
		<path d="M1451.861,682.158L1451.861,682.158c4.783,2.761,10.899,1.123,13.66-3.66l69.762-120.832
			c2.761-4.783,1.123-10.899-3.66-13.66l0,0c-4.783-2.761-10.899-1.123-13.66,3.66l-69.762,120.832
			C1445.439,673.28,1447.078,679.396,1451.861,682.158z"/>
	</g>
</g>
<g id="Layer_6">
	<g id="M">
		<linearGradient id="SVGID_1_" gradientUnits="userSpaceOnUse" x1="366.0589" y1="651.242" x2="331.4178" y2="631.242">
			<stop  offset="0" style="stop-color:#33BED5"/>
			<stop  offset="0.9949" style="stop-color:#4F95C3"/>
		</linearGradient>
		<path fill="url(#SVGID_1_)" d="M409.981,535.167L409.981,535.167c9.566,5.523,12.843,17.755,7.321,27.32L314.816,739.997
			c-5.523,9.566-17.755,12.843-27.32,7.321l0,0c-9.566-5.523-12.843-17.755-7.321-27.32L382.66,542.487
			C388.183,532.922,400.415,529.644,409.981,535.167z"/>
		<linearGradient id="SVGID_2_" gradientUnits="userSpaceOnUse" x1="750.4471" y1="695.621" x2="562.0728" y2="586.863">
			<stop  offset="0" style="stop-color:#33BED5"/>
			<stop  offset="0.9949" style="stop-color:#4F95C3"/>
		</linearGradient>
		<path fill="url(#SVGID_2_)" d="M595.017,535.167L595.017,535.167c-9.566,5.523-12.843,17.755-7.32,27.32l102.485,177.509
			c5.523,9.566,17.755,12.843,27.32,7.32v0c9.566-5.523,12.843-17.755,7.32-27.32L622.338,542.487
			C616.815,532.922,604.583,529.644,595.017,535.167z"/>
		<linearGradient id="SVGID_3_" gradientUnits="userSpaceOnUse" x1="571.0655" y1="651.242" x2="382.6891" y2="542.4828">
			<stop  offset="0" style="stop-color:#33BED5"/>
			<stop  offset="0.9949" style="stop-color:#4F95C3"/>
		</linearGradient>
		<path fill="url(#SVGID_3_)" d="M614.988,535.167L614.988,535.167c-9.566-5.523-21.798-2.245-27.321,7.32l-85.168,147.515
			l-85.168-147.515c-5.523-9.566-17.755-12.843-27.32-7.32s-12.843,17.755-7.32,27.32l102.485,177.509
			c0.049,0.085,0.108,0.161,0.159,0.245c0.169,0.285,0.356,0.559,0.54,0.835c0.185,0.278,0.367,0.56,0.564,0.827
			c0.176,0.238,0.368,0.463,0.555,0.694c0.235,0.29,0.467,0.582,0.716,0.856c0.158,0.174,0.331,0.337,0.496,0.506
			c0.303,0.311,0.606,0.62,0.927,0.908c0.136,0.122,0.283,0.235,0.424,0.354c0.371,0.315,0.745,0.624,1.135,0.909
			c0.133,0.097,0.274,0.185,0.409,0.279c0.413,0.286,0.831,0.563,1.263,0.817c0.048,0.028,0.091,0.063,0.14,0.091
			c0.126,0.073,0.258,0.127,0.385,0.197c0.395,0.216,0.792,0.426,1.2,0.614c0.249,0.116,0.5,0.218,0.751,0.322
			c0.334,0.139,0.669,0.274,1.01,0.394c0.315,0.111,0.631,0.208,0.948,0.303c0.29,0.086,0.579,0.17,0.872,0.243
			c0.351,0.088,0.703,0.162,1.056,0.23c0.278,0.053,0.555,0.104,0.835,0.146c0.353,0.052,0.706,0.093,1.06,0.126
			c0.297,0.028,0.593,0.052,0.891,0.067c0.33,0.016,0.659,0.022,0.988,0.022c0.329,0,0.658-0.006,0.988-0.022
			c0.298-0.015,0.594-0.038,0.891-0.067c0.354-0.033,0.707-0.074,1.061-0.126c0.28-0.042,0.558-0.092,0.835-0.146
			c0.353-0.068,0.705-0.142,1.056-0.229c0.293-0.073,0.583-0.157,0.873-0.243c0.317-0.095,0.633-0.192,0.948-0.303
			c0.341-0.12,0.676-0.256,1.01-0.394c0.251-0.105,0.502-0.206,0.751-0.322c0.408-0.189,0.805-0.398,1.201-0.615
			c0.127-0.07,0.258-0.124,0.384-0.197h0c0.049-0.028,0.092-0.062,0.14-0.091c0.431-0.253,0.849-0.53,1.262-0.816
			c0.136-0.094,0.277-0.183,0.41-0.28c0.39-0.285,0.764-0.594,1.135-0.908c0.14-0.119,0.288-0.232,0.424-0.354
			c0.32-0.288,0.623-0.597,0.926-0.907c0.166-0.169,0.338-0.333,0.497-0.507c0.248-0.273,0.48-0.565,0.714-0.854
			c0.188-0.231,0.381-0.458,0.557-0.696c0.197-0.266,0.378-0.548,0.563-0.826c0.184-0.277,0.371-0.551,0.541-0.836
			c0.05-0.084,0.109-0.16,0.158-0.245l102.485-177.509C627.831,552.922,624.553,540.69,614.988,535.167z"/>
	</g>
	<linearGradient id="SVGID_4_" gradientUnits="userSpaceOnUse" x1="502.4991" y1="-38.7133" x2="502.4991" y2="750.0487">
		<stop  offset="0" style="stop-color:#33BED5"/>
		<stop  offset="0.9949" style="stop-color:#4F95C3"/>
	</linearGradient>
	<path fill="url(#SVGID_4_)" d="M614.988,535.167L614.988,535.167c-9.566-5.523-21.798-2.245-27.321,7.32l-85.168,147.515
		l-85.168-147.515c-5.523-9.566-17.755-12.843-27.32-7.32s-12.843,17.755-7.32,27.32l102.485,177.509
		c0.049,0.085,0.108,0.161,0.159,0.245c0.171,0.287,0.357,0.56,0.54,0.835c0.185,0.278,0.365,0.558,0.564,0.827
		c0.177,0.24,0.369,0.464,0.555,0.694c0.234,0.289,0.464,0.58,0.716,0.856c0.16,0.176,0.331,0.337,0.496,0.506
		c0.302,0.308,0.603,0.617,0.927,0.908c0.137,0.124,0.283,0.235,0.424,0.354c0.368,0.312,0.741,0.621,1.135,0.909
		c0.134,0.098,0.274,0.185,0.409,0.279c0.409,0.284,0.827,0.56,1.263,0.817c0.048,0.028,0.091,0.063,0.14,0.091
		c0.126,0.073,0.258,0.127,0.385,0.197c0.396,0.218,0.795,0.426,1.2,0.614c0.248,0.115,0.5,0.218,0.751,0.322
		c0.335,0.14,0.671,0.274,1.01,0.394c0.313,0.11,0.63,0.208,0.948,0.303c0.29,0.087,0.58,0.17,0.872,0.243
		c0.35,0.087,0.702,0.161,1.056,0.23c0.278,0.053,0.556,0.104,0.835,0.146c0.352,0.052,0.706,0.093,1.06,0.126
		c0.297,0.028,0.594,0.052,0.891,0.067c0.329,0.017,0.658,0.022,0.988,0.022c0.33,0,0.659-0.006,0.988-0.022
		c0.297-0.014,0.594-0.039,0.891-0.067c0.355-0.034,0.709-0.074,1.061-0.126c0.279-0.042,0.557-0.092,0.835-0.146
		c0.354-0.068,0.706-0.143,1.056-0.229c0.292-0.073,0.582-0.157,0.873-0.243c0.318-0.094,0.635-0.193,0.948-0.303
		c0.339-0.12,0.675-0.255,1.01-0.394c0.252-0.104,0.503-0.208,0.751-0.322c0.405-0.188,0.804-0.397,1.201-0.615
		c0.127-0.07,0.258-0.124,0.384-0.197h0c0.049-0.028,0.092-0.062,0.14-0.091c0.436-0.256,0.853-0.532,1.262-0.816
		c0.136-0.094,0.276-0.182,0.41-0.28c0.394-0.288,0.767-0.596,1.135-0.908c0.141-0.12,0.286-0.231,0.424-0.354
		c0.324-0.29,0.624-0.599,0.926-0.907c0.165-0.17,0.337-0.331,0.497-0.507c0.251-0.276,0.48-0.566,0.714-0.854
		c0.187-0.23,0.379-0.455,0.557-0.696c0.199-0.269,0.378-0.548,0.563-0.826c0.183-0.276,0.369-0.549,0.541-0.836
		c0.05-0.084,0.109-0.16,0.158-0.245l102.485-177.509C627.831,552.922,624.553,540.69,614.988,535.167z"/>
	<g id="W">
		<linearGradient id="SVGID_5_" gradientUnits="userSpaceOnUse" x1="297.4925" y1="250" x2="297.4925" y2="750">
			<stop  offset="0" style="stop-color:#33BED5"/>
			<stop  offset="0.6632" style="stop-color:#1CD0E5"/>
			<stop  offset="0.9949" style="stop-color:#4F95C3"/>
		</linearGradient>
		<path fill="url(#SVGID_5_)" d="M297.492,750L297.492,750c-11.046,0-20-8.954-20-20V270c0-11.046,8.954-20,20-20h0
			c11.046,0,20,8.954,20,20v460C317.492,741.046,308.538,750,297.492,750z"/>
		<linearGradient id="SVGID_6_" gradientUnits="userSpaceOnUse" x1="399.9958" y1="354.9229" x2="399.9958" y2="750">
			<stop  offset="0" style="stop-color:#33BED5"/>
			<stop  offset="0.6632" style="stop-color:#1CD0E5"/>
			<stop  offset="0.9949" style="stop-color:#4F95C3"/>
		</linearGradient>
		<path fill="url(#SVGID_6_)" d="M512.496,357.606L512.496,357.606c9.566,5.523,12.843,17.755,7.321,27.32l-205,355.07
			c-5.523,9.566-17.755,12.843-27.32,7.321l0,0c-9.566-5.523-12.843-17.755-7.321-27.32l205-355.07
			C490.698,355.36,502.93,352.083,512.496,357.606z"/>
		<linearGradient id="SVGID_7_" gradientUnits="userSpaceOnUse" x1="707.5059" y1="250" x2="707.5059" y2="750">
			<stop  offset="0" style="stop-color:#33BED5"/>
			<stop  offset="0.6632" style="stop-color:#1CD0E5"/>
			<stop  offset="0.9949" style="stop-color:#4F95C3"/>
		</linearGradient>
		<path fill="url(#SVGID_7_)" d="M707.506,750L707.506,750c11.046,0,20-8.954,20-20V270c0-11.046-8.954-20-20-20h0
			c-11.046,0-20,8.954-20,20v460C687.506,741.046,696.46,750,707.506,750z"/>
		<linearGradient id="SVGID_8_" gradientUnits="userSpaceOnUse" x1="605.0025" y1="354.9229" x2="605.0025" y2="750">
			<stop  offset="0" style="stop-color:#33BED5"/>
			<stop  offset="0.6632" style="stop-color:#1CD0E5"/>
			<stop  offset="0.9949" style="stop-color:#4F95C3"/>
		</linearGradient>
		<path fill="url(#SVGID_8_)" d="M492.503,357.606L492.503,357.606c-9.566,5.523-12.843,17.755-7.321,27.32l205,355.07
			c5.523,9.566,17.755,12.843,27.32,7.321v0c9.566-5.523,12.843-17.755,7.32-27.32l-205-355.07
			C514.3,355.36,502.068,352.083,492.503,357.606z"/>
	</g>
</g>
<g id="Layer_7">
	<g>
		<path d="M302.461,2069L302.461,2069c-8.284,0-15-6.716-15-15v-501.086c0-8.284,6.716-15,15-15h0c8.284,0,15,6.716,15,15V2054
			C317.461,2062.284,310.745,2069,302.461,2069z"/>
		<path d="M505.028,1703.144L505.028,1703.144c7.174,4.142,9.633,13.316,5.49,20.49l-195.065,337.863
			c-4.142,7.174-13.316,9.633-20.49,5.49h0c-7.174-4.142-9.633-13.316-5.49-20.49l195.065-337.863
			C488.68,1701.46,497.854,1699.002,505.028,1703.144z"/>
		<path d="M505.028,2066.988L505.028,2066.988c-7.174,4.142-16.348,1.684-20.49-5.49l-97.142-168.255
			c-4.142-7.174-1.684-16.348,5.49-20.49h0c7.174-4.142,16.348-1.684,20.49,5.49l97.142,168.255
			C514.661,2053.672,512.203,2062.846,505.028,2066.988z"/>
	</g>
	<g>
		<path d="M692.601,2069L692.601,2069c8.284,0,15-6.716,15-15v-501.086c0-8.284-6.716-15-15-15l0,0c-8.284,0-15,6.716-15,15V2054
			C677.601,2062.284,684.317,2069,692.601,2069z"/>
		<path d="M490.034,1703.144L490.034,1703.144c-7.174,4.142-9.633,13.316-5.49,20.49l195.065,337.863
			c4.142,7.174,13.316,9.633,20.49,5.49l0,0c7.174-4.142,9.633-13.316,5.49-20.49l-195.065-337.863
			C506.382,1701.46,497.208,1699.002,490.034,1703.144z"/>
		<path d="M490.034,2066.988L490.034,2066.988c7.174,4.142,16.348,1.684,20.49-5.49l97.142-168.255
			c4.142-7.174,1.684-16.348-5.49-20.49l0,0c-7.174-4.142-16.348-1.684-20.49,5.49l-97.142,168.255
			C480.401,2053.672,482.859,2062.846,490.034,2066.988z"/>
	</g>
</g>
<g id="Layer_8">
	<linearGradient id="SVGID_9_" gradientUnits="userSpaceOnUse" x1="-693.4278" y1="750.0731" x2="-693.4278" y2="532.5755">
		<stop  offset="0" style="stop-color:#33CCC5"/>
		<stop  offset="0.9949" style="stop-color:#4FD0C3"/>
	</linearGradient>
	<path fill="url(#SVGID_9_)" d="M-471.104,720.07L-573.589,542.56c-1.824-3.159-4.389-5.616-7.339-7.313
		c-0.004-0.002-0.008-0.005-0.012-0.008h0c-0.01-0.006-0.021-0.01-0.031-0.016c-0.546-0.312-1.103-0.598-1.674-0.857
		c-0.123-0.056-0.248-0.106-0.372-0.16c-0.453-0.194-0.909-0.376-1.374-0.536c-0.22-0.077-0.441-0.143-0.662-0.212
		c-0.376-0.115-0.753-0.224-1.135-0.316c-0.285-0.07-0.57-0.129-0.857-0.186c-0.333-0.066-0.666-0.126-1.003-0.175
		c-0.316-0.046-0.632-0.082-0.949-0.113c-0.32-0.031-0.64-0.056-0.961-0.072c-0.324-0.016-0.646-0.022-0.969-0.022
		c-0.321,0-0.642,0.006-0.964,0.021c-0.323,0.016-0.644,0.041-0.965,0.072c-0.316,0.031-0.632,0.067-0.948,0.113
		c-0.336,0.049-0.67,0.109-1.003,0.175c-0.286,0.057-0.571,0.116-0.856,0.186c-0.382,0.093-0.76,0.201-1.136,0.317
		c-0.221,0.068-0.441,0.135-0.661,0.211c-0.465,0.16-0.921,0.342-1.374,0.536c-0.124,0.054-0.249,0.103-0.372,0.16
		c-0.57,0.259-1.128,0.545-1.674,0.857c-0.01,0.006-0.021,0.01-0.031,0.016c-0.004,0.002-0.007,0.005-0.011,0.007
		c-2.95,1.697-5.515,4.154-7.339,7.313l-85.168,147.515l-85.168-147.515c-1.824-3.16-4.389-5.616-7.339-7.313
		c-0.004-0.002-0.007-0.005-0.011-0.007h0c-0.01-0.006-0.02-0.01-0.03-0.015c-0.546-0.312-1.104-0.599-1.675-0.857
		c-0.123-0.056-0.248-0.106-0.372-0.16c-0.453-0.194-0.909-0.376-1.374-0.536c-0.219-0.076-0.44-0.143-0.661-0.211
		c-0.376-0.115-0.754-0.224-1.136-0.317c-0.285-0.07-0.57-0.129-0.856-0.186c-0.333-0.066-0.667-0.126-1.003-0.175
		c-0.316-0.046-0.631-0.082-0.948-0.113c-0.321-0.031-0.642-0.057-0.965-0.072c-0.322-0.016-0.643-0.021-0.964-0.021
		c-0.323,0-0.645,0.006-0.969,0.022c-0.322,0.016-0.641,0.041-0.962,0.072c-0.317,0.031-0.633,0.067-0.949,0.113
		c-0.336,0.049-0.669,0.109-1.002,0.175c-0.287,0.057-0.572,0.116-0.857,0.186c-0.382,0.093-0.758,0.201-1.134,0.316
		c-0.221,0.068-0.442,0.135-0.662,0.212c-0.465,0.16-0.921,0.342-1.374,0.536c-0.124,0.054-0.249,0.103-0.372,0.16
		c-0.57,0.259-1.127,0.544-1.673,0.856c-0.01,0.006-0.021,0.01-0.032,0.016c-0.004,0.002-0.008,0.005-0.012,0.008
		c-2.95,1.697-5.515,4.153-7.339,7.313L-915.752,720.07c-5.523,9.566-2.245,21.798,7.32,27.321h0
		c9.566,5.523,21.798,2.245,27.32-7.321l85.18-147.535l85.179,147.535c0.049,0.085,0.108,0.161,0.159,0.245
		c0.169,0.285,0.356,0.559,0.54,0.835c0.185,0.278,0.367,0.56,0.564,0.827c0.176,0.238,0.368,0.463,0.555,0.694
		c0.235,0.29,0.467,0.582,0.716,0.856c0.158,0.174,0.331,0.337,0.496,0.506c0.303,0.311,0.606,0.62,0.927,0.908
		c0.136,0.122,0.283,0.235,0.424,0.354c0.371,0.315,0.745,0.624,1.135,0.909c0.133,0.097,0.274,0.185,0.409,0.279
		c0.413,0.286,0.831,0.563,1.263,0.817c0.048,0.028,0.091,0.063,0.14,0.091c0.126,0.073,0.258,0.127,0.385,0.197
		c0.395,0.216,0.792,0.426,1.2,0.614c0.249,0.116,0.5,0.218,0.751,0.322c0.334,0.139,0.669,0.274,1.01,0.394
		c0.315,0.111,0.631,0.208,0.948,0.303c0.29,0.086,0.579,0.17,0.872,0.243c0.351,0.088,0.703,0.162,1.056,0.23
		c0.278,0.053,0.555,0.104,0.835,0.146c0.353,0.052,0.706,0.093,1.06,0.126c0.297,0.028,0.593,0.052,0.891,0.067
		c0.33,0.016,0.659,0.022,0.988,0.022c0.329,0,0.658-0.006,0.988-0.022c0.298-0.015,0.594-0.038,0.891-0.067
		c0.354-0.033,0.707-0.074,1.061-0.126c0.28-0.042,0.558-0.092,0.835-0.146c0.353-0.068,0.705-0.142,1.056-0.229
		c0.293-0.073,0.583-0.157,0.873-0.243c0.317-0.095,0.633-0.192,0.948-0.303c0.341-0.12,0.676-0.256,1.01-0.394
		c0.251-0.105,0.502-0.206,0.751-0.322c0.408-0.189,0.805-0.398,1.201-0.615c0.127-0.07,0.258-0.124,0.384-0.197h0
		c0.049-0.028,0.092-0.062,0.14-0.091c0.431-0.253,0.849-0.53,1.262-0.816c0.136-0.094,0.277-0.183,0.41-0.28
		c0.39-0.285,0.764-0.594,1.135-0.908c0.14-0.119,0.288-0.232,0.424-0.354c0.32-0.288,0.623-0.597,0.926-0.907
		c0.166-0.169,0.338-0.333,0.497-0.507c0.248-0.273,0.48-0.565,0.714-0.854c0.188-0.231,0.381-0.458,0.557-0.696
		c0.197-0.266,0.378-0.548,0.563-0.826c0.184-0.277,0.371-0.551,0.541-0.836c0.05-0.084,0.109-0.16,0.158-0.245l85.18-147.535
		l85.18,147.535c5.523,9.566,17.755,12.844,27.32,7.321C-468.859,741.867-465.581,729.636-471.104,720.07z"/>
	<linearGradient id="SVGID_10_" gradientUnits="userSpaceOnUse" x1="-693.4278" y1="750.0545" x2="-693.4278" y2="532.5571">
		<stop  offset="0" style="stop-color:#33FF45"/>
		<stop  offset="0.9949" style="stop-color:#4FD0C3"/>
	</linearGradient>
	<path fill="url(#SVGID_10_)" d="M-580.939,535.24L-580.939,535.24c-9.566-5.523-21.798-2.245-27.321,7.32l-85.168,147.515
		l-85.168-147.515c-5.523-9.566-17.755-12.843-27.32-7.32s-12.843,17.755-7.32,27.32l102.485,177.509
		c0.049,0.085,0.108,0.161,0.159,0.245c0.169,0.285,0.356,0.559,0.54,0.835c0.185,0.278,0.367,0.56,0.564,0.827
		c0.176,0.238,0.368,0.463,0.555,0.694c0.235,0.29,0.467,0.582,0.716,0.856c0.158,0.174,0.331,0.337,0.496,0.506
		c0.303,0.311,0.606,0.62,0.927,0.908c0.136,0.122,0.283,0.235,0.424,0.354c0.371,0.315,0.745,0.624,1.135,0.909
		c0.133,0.097,0.274,0.185,0.409,0.279c0.413,0.286,0.831,0.563,1.263,0.817c0.048,0.028,0.091,0.063,0.14,0.091
		c0.126,0.073,0.258,0.127,0.385,0.197c0.395,0.216,0.792,0.426,1.2,0.614c0.249,0.116,0.5,0.218,0.751,0.322
		c0.334,0.139,0.669,0.274,1.01,0.394c0.315,0.111,0.631,0.208,0.948,0.303c0.29,0.086,0.579,0.17,0.872,0.243
		c0.351,0.088,0.703,0.162,1.056,0.23c0.278,0.053,0.555,0.104,0.835,0.146c0.353,0.052,0.706,0.093,1.06,0.126
		c0.297,0.028,0.593,0.052,0.891,0.067c0.33,0.016,0.659,0.022,0.988,0.022c0.329,0,0.658-0.006,0.988-0.022
		c0.298-0.015,0.594-0.038,0.891-0.067c0.354-0.033,0.707-0.074,1.061-0.126c0.28-0.042,0.558-0.092,0.835-0.146
		c0.353-0.068,0.705-0.142,1.056-0.229c0.293-0.073,0.583-0.157,0.873-0.243c0.317-0.095,0.633-0.192,0.948-0.303
		c0.341-0.12,0.676-0.256,1.01-0.394c0.251-0.105,0.502-0.206,0.751-0.322c0.408-0.189,0.805-0.398,1.201-0.615
		c0.127-0.07,0.258-0.124,0.384-0.197h0c0.049-0.028,0.092-0.062,0.14-0.091c0.431-0.253,0.849-0.53,1.262-0.816
		c0.136-0.094,0.277-0.183,0.41-0.28c0.39-0.285,0.764-0.594,1.135-0.908c0.14-0.119,0.288-0.232,0.424-0.354
		c0.32-0.288,0.623-0.597,0.926-0.907c0.166-0.169,0.338-0.333,0.497-0.507c0.248-0.273,0.48-0.565,0.714-0.854
		c0.188-0.231,0.381-0.458,0.557-0.696c0.197-0.266,0.378-0.548,0.563-0.826c0.184-0.277,0.371-0.551,0.541-0.836
		c0.05-0.084,0.109-0.16,0.158-0.245l102.485-177.509C-568.096,552.995-571.374,540.763-580.939,535.24z"/>
	<linearGradient id="SVGID_11_" gradientUnits="userSpaceOnUse" x1="-693.5" y1="750.0731" x2="-693.5" y2="250">
		<stop  offset="0" style="stop-color:#33AACE"/>
		<stop  offset="0.9949" style="stop-color:#28F6B8"/>
	</linearGradient>
	<path fill="url(#SVGID_11_)" d="M-472.185,741.721c0.208-0.289,0.409-0.582,0.601-0.882c0.145-0.227,0.283-0.456,0.418-0.688
		c0.199-0.34,0.389-0.685,0.568-1.037c0.103-0.204,0.201-0.409,0.297-0.616c0.18-0.387,0.35-0.779,0.506-1.179
		c0.074-0.192,0.143-0.385,0.212-0.578c0.146-0.412,0.281-0.828,0.4-1.251c0.059-0.208,0.109-0.417,0.161-0.627
		c0.1-0.404,0.192-0.811,0.266-1.224c0.047-0.26,0.083-0.522,0.12-0.785c0.051-0.363,0.1-0.726,0.13-1.096
		c0.029-0.338,0.25-0.678,0.262-1.018c0.007-0.223,0.244-0.442,0.244-0.667v-460c0-11.046-9.128-20.073-20.174-20.073h0.123
		c-11.046,0-19.949,9.027-19.949,20.073v385.361l-167.893-290.435c-0.049-0.085-0.213-0.161-0.264-0.245
		c-0.17-0.285-0.409-0.559-0.593-0.836c-0.185-0.278-0.392-0.56-0.589-0.826c-0.176-0.238-0.383-0.465-0.57-0.696
		c-0.234-0.289-0.472-0.581-0.721-0.854c-0.159-0.175-0.335-0.338-0.501-0.507c-0.303-0.31-0.607-0.619-0.927-0.907
		c-0.136-0.123-0.284-0.235-0.425-0.354c-0.371-0.315-0.745-0.623-1.135-0.908c-0.133-0.097-0.275-0.186-0.411-0.28
		c-0.413-0.286-0.83-0.562-1.261-0.815c-0.049-0.029-0.092-0.063-0.141-0.091h0c-0.126-0.073-0.258-0.127-0.385-0.197
		c-0.395-0.216-0.792-0.426-1.2-0.614c-0.249-0.116-0.5-0.217-0.751-0.322c-0.334-0.138-0.669-0.274-1.01-0.394
		c-0.315-0.111-0.631-0.209-0.949-0.303c-0.289-0.086-0.578-0.17-0.871-0.243c-0.351-0.088-0.703-0.162-1.057-0.23
		c-0.278-0.053-0.555-0.104-0.835-0.146c-0.354-0.052-0.707-0.093-1.061-0.126c-0.296-0.028-0.592-0.052-0.89-0.067
		c-0.33-0.016-0.659-0.022-0.988-0.022c-0.329,0-0.658,0.006-0.988,0.022c-0.298,0.015-0.594,0.038-0.89,0.067
		c-0.354,0.033-0.708,0.074-1.061,0.126c-0.28,0.042-0.557,0.092-0.835,0.146c-0.354,0.068-0.706,0.142-1.057,0.23
		c-0.293,0.073-0.581,0.157-0.87,0.243c-0.318,0.095-0.634,0.192-0.949,0.304c-0.341,0.12-0.675,0.256-1.01,0.394
		c-0.251,0.105-0.503,0.207-0.751,0.322c-0.407,0.188-0.804,0.398-1.199,0.614c-0.127,0.07-0.259,0.125-0.386,0.198
		c-0.049,0.028-0.092,0.062-0.141,0.091c-0.431,0.253-0.849,0.53-1.261,0.816c-0.136,0.094-0.277,0.183-0.41,0.28
		c-0.39,0.285-0.765,0.594-1.135,0.909c-0.14,0.119-0.287,0.232-0.424,0.354c-0.32,0.288-0.623,0.597-0.927,0.908
		c-0.165,0.169-0.337,0.332-0.496,0.506c-0.249,0.274-0.481,0.566-0.716,0.856c-0.187,0.23-0.379,0.456-0.555,0.694
		c-0.197,0.266-0.378,0.548-0.564,0.827c-0.184,0.277-0.371,0.551-0.54,0.835c-0.05,0.084-0.392,0.16-0.441,0.245L-879,655.434
		V270.073c0-11.046-8.635-20.073-19.681-20.073h-0.123C-909.85,250-919,259.027-919,270.073v460c0,0.225,0.309,0.444,0.316,0.667
		c0.012,0.34,0.164,0.68,0.193,1.018c0.031,0.369,0.15,0.731,0.201,1.094c0.037,0.263,0.108,0.526,0.155,0.787
		c0.075,0.413,0.184,0.819,0.284,1.223c0.052,0.21,0.112,0.419,0.17,0.627c0.119,0.424,0.259,0.839,0.405,1.251
		c0.069,0.194,0.14,0.387,0.214,0.579c0.156,0.4,0.326,0.791,0.506,1.178c0.096,0.208,0.195,0.414,0.298,0.618
		c0.179,0.352,0.369,0.697,0.568,1.037c0.135,0.232,0.273,0.46,0.417,0.687c0.192,0.3,0.394,0.593,0.601,0.882
		c0.176,0.246,0.356,0.488,0.543,0.727c0.207,0.262,0.422,0.516,0.641,0.767c0.207,0.237,0.416,0.471,0.635,0.698
		c0.239,0.249,0.487,0.487,0.739,0.724c0.214,0.201,0.428,0.4,0.652,0.592c0.301,0.259,0.613,0.502,0.928,0.743
		c0.192,0.146,0.382,0.294,0.581,0.434c0.388,0.274,0.79,0.528,1.198,0.775c0.11,0.066,0.21,0.144,0.322,0.208h0
		c0.043,0.025,0.088,0.043,0.132,0.067c0.449,0.255,0.912,0.486,1.381,0.707c0.138,0.065,0.273,0.137,0.412,0.198
		c0.445,0.197,0.903,0.368,1.365,0.533c0.173,0.062,0.343,0.133,0.517,0.189c0.399,0.13,0.808,0.234,1.218,0.34
		c0.243,0.062,0.484,0.134,0.727,0.187c0.337,0.073,0.682,0.123,1.026,0.179c0.321,0.052,0.64,0.11,0.962,0.147
		c0.295,0.033,0.594,0.047,0.893,0.067c0.37,0.025,0.74,0.052,1.109,0.056c0.086,0.001,0.169,0.013,0.256,0.013h0
		c0.223,0,0.44-0.026,0.662-0.033c0.346-0.012,0.691-0.023,1.035-0.052c0.357-0.03,0.708-0.078,1.06-0.126
		c0.278-0.039,0.555-0.076,0.831-0.127c0.394-0.071,0.78-0.159,1.165-0.253c0.234-0.057,0.466-0.114,0.698-0.179
		c0.396-0.112,0.785-0.239,1.171-0.374c0.225-0.079,0.449-0.159,0.671-0.246c0.366-0.143,0.724-0.299,1.079-0.463
		c0.244-0.112,0.486-0.227,0.725-0.349c0.313-0.16,0.619-0.329,0.921-0.505c0.273-0.158,0.543-0.321,0.81-0.492
		c0.255-0.165,0.504-0.336,0.751-0.512c0.291-0.207,0.578-0.419,0.859-0.642c0.214-0.17,0.421-0.346,0.628-0.525
		c0.284-0.246,0.564-0.496,0.836-0.759c0.198-0.191,0.388-0.39,0.577-0.589c0.25-0.263,0.497-0.529,0.734-0.808
		c0.205-0.24,0.398-0.49,0.592-0.74c0.196-0.254,0.393-0.508,0.578-0.773c0.219-0.312,0.421-0.636,0.622-0.961
		c0.103-0.167,0.22-0.321,0.319-0.493l187.683-325.076l187.683,325.076c0.099,0.171,0.215,0.325,0.318,0.492
		c0.201,0.326,0.404,0.65,0.623,0.963c0.185,0.266,0.382,0.519,0.578,0.773c0.194,0.25,0.387,0.5,0.593,0.74
		c0.237,0.279,0.484,0.545,0.734,0.808c0.19,0.199,0.379,0.398,0.577,0.589c0.272,0.263,0.551,0.514,0.836,0.759
		c0.207,0.179,0.414,0.355,0.628,0.525c0.281,0.223,0.568,0.436,0.859,0.642c0.247,0.176,0.496,0.347,0.751,0.512
		c0.267,0.172,0.537,0.334,0.811,0.493c0.302,0.176,0.608,0.344,0.92,0.504c0.24,0.122,0.482,0.238,0.726,0.35
		c0.355,0.164,0.713,0.319,1.079,0.463c0.222,0.087,0.446,0.167,0.67,0.245c0.386,0.136,0.775,0.262,1.171,0.375
		c0.231,0.065,0.464,0.122,0.697,0.179c0.385,0.094,0.772,0.182,1.166,0.253c0.276,0.05,0.553,0.088,0.831,0.127
		c0.352,0.049,0.703,0.096,1.06,0.126c0.344,0.03,0.689,0.041,1.035,0.052c0.222,0.007,0.438,0.033,0.662,0.033h0
		c0.086,0,0.17-0.012,0.256-0.013c0.37-0.004,0.739-0.031,1.109-0.056c0.298-0.02,0.598-0.034,0.892-0.067
		c0.322-0.036,0.642-0.094,0.962-0.147c0.343-0.056,0.688-0.106,1.025-0.179c0.244-0.053,0.485-0.125,0.728-0.187
		c0.409-0.105,0.818-0.209,1.217-0.339c0.174-0.057,0.345-0.128,0.518-0.189c0.461-0.165,0.919-0.336,1.364-0.532
		c0.139-0.061,0.274-0.134,0.412-0.198c0.47-0.221,0.932-0.452,1.381-0.707c0.043-0.025,0.088-0.042,0.132-0.067
		c0.112-0.064,0.211-0.141,0.321-0.208c0.408-0.247,0.811-0.501,1.199-0.776c0.199-0.14,0.388-0.288,0.58-0.433
		c0.316-0.241,0.628-0.485,0.929-0.744c0.224-0.192,0.438-0.392,0.651-0.592c0.252-0.237,0.5-0.475,0.739-0.724
		c0.218-0.227,0.427-0.461,0.634-0.697c0.22-0.252,0.435-0.506,0.642-0.768C-472.541,742.209-472.361,741.967-472.185,741.721z"/>
</g>
</svg>
